<svg xmlns="http://www.w3.org/2000/svg" xmlns:xlink="http://www.w3.org/1999/xlink" viewBox="0,0,256,256" width="80px" height="80px" fill-rule="nonzero"><g fill="none" fill-rule="nonzero" stroke="none" stroke-width="1" stroke-linecap="butt" stroke-linejoin="miter" stroke-miterlimit="10" stroke-dasharray="" stroke-dashoffset="0" font-family="none" font-weight="none" font-size="none" text-anchor="none" style="mix-blend-mode: normal"><g transform="scale(6.4,6.4)"><path d="M24.38,33.464c0.327,-3.065 0.256,-6.5 0.182,-10.04c-0.028,-1.393 -0.058,-2.791 -0.062,-4.171c0.207,-0.165 0.37,-0.352 0.401,-0.615c0.044,-0.367 -0.177,-0.614 -0.483,-0.957l-0.075,-0.084c-0.26,-0.252 -0.519,-0.603 -0.792,-0.975c-0.503,-0.682 -1.022,-1.388 -1.628,-1.647l-0.697,-0.299v0.758c0,0.402 0.235,0.829 0.433,1.115c0.065,0.095 0.151,0.199 0.237,0.303c0.062,0.074 0.16,0.192 0.2,0.255l0.008,0.032c0.057,0.216 0.087,0.792 -0.34,2.227c-0.406,2.028 -0.907,3.896 -1.408,5.28c-0.003,-0.002 -0.356,-0.342 -0.356,-0.342c0,0 -0.349,0.336 -0.35,0.337c-0.491,-1.406 -0.91,-3.164 -1.29,-4.757l-0.149,-0.613c-0.133,-0.508 -0.443,-1.697 -0.319,-2.113l0.021,-0.07v-0.073c0.001,0 0.001,0 0.002,0c0.025,0 0.187,-0.218 0.274,-0.337l0.152,-0.21c0.194,-0.283 0.434,-0.629 0.434,-1.116v-0.729l-0.68,0.262c-0.696,0.268 -1.264,1.067 -1.765,1.772c-0.238,0.336 -0.464,0.654 -0.646,0.829l-0.097,0.106c-0.291,0.325 -0.521,0.582 -0.492,0.948c0.021,0.28 0.189,0.493 0.404,0.688c-0.003,1.408 -0.034,2.832 -0.064,4.249c-0.076,3.52 -0.15,6.934 0.18,9.983c-1.082,-4.422 -1.114,-9.583 -1.115,-15.379c0.122,-0.018 0.271,-0.071 0.412,-0.208c0.566,-0.442 1.137,-1.13 1.688,-1.794c0.354,-0.427 0.689,-0.83 0.985,-1.115l2.243,-2.162l-1.808,0.871c0,0 -0.964,-0.169 -0.979,-0.171h1.324l-0.544,-0.785c-0.098,-0.14 -0.175,-0.326 -0.259,-0.515c-0.226,-0.512 -0.506,-1.148 -1.142,-1.323c-0.088,-0.052 -0.281,-0.092 -0.507,-0.092c-0.145,0 -0.299,0.018 -0.462,0.038c-0.144,0.017 -0.296,0.037 -0.458,0.037c-0.333,0 -0.671,-0.007 -0.998,-0.014c-0.318,-0.007 -0.628,-0.013 -0.918,-0.013c-0.777,0 -1.362,0.043 -1.763,0.222c-0.122,-0.086 -0.249,-0.161 -0.368,-0.231c-0.161,-0.095 -0.355,-0.209 -0.442,-0.31c0.04,-0.227 0.162,-0.745 0.303,-1.154l0.133,-0.393c0.121,-0.364 0.246,-0.74 0.356,-0.954c0.219,-0.753 0.485,-1.57 0.782,-2.406c-0.214,1.353 -0.346,2.813 -0.346,4.422v0.5h4.644c0.264,0.214 0.509,0.487 0.747,0.752c0.293,0.326 0.569,0.633 0.878,0.832l1.034,0.664l-0.097,-0.42c0.228,-0.016 0.407,-0.121 0.537,-0.314c0.186,0.066 0.368,0.066 0.521,0.066c0.165,0 0.339,-0.038 0.503,-0.104c0.139,0.223 0.323,0.335 0.556,0.352l-0.097,0.42l1.034,-0.664c0.337,-0.217 0.665,-0.569 1.013,-0.942c0.208,-0.224 0.422,-0.454 0.629,-0.642h4.627v-0.5c0,-1.716 -0.15,-3.264 -0.39,-4.693c0.333,0.927 0.595,1.781 0.784,2.565l0.015,0.059l0.027,0.053c0.11,0.214 0.235,0.59 0.356,0.954l0.133,0.394c0.134,0.388 0.25,0.874 0.296,1.12c-0.084,0.069 -0.232,0.159 -0.332,0.219c-0.161,0.097 -0.346,0.208 -0.518,0.351c-0.422,-0.175 -1.019,-0.218 -1.779,-0.218c-0.29,0 -0.597,0.007 -0.908,0.013c-0.313,0.007 -0.633,0.014 -0.945,0.014c-0.162,0 -0.314,-0.02 -0.458,-0.037c-0.163,-0.02 -0.317,-0.038 -0.462,-0.038c-0.226,0 -0.419,0.041 -0.592,0.124c-0.551,0.143 -0.831,0.779 -1.057,1.291c-0.084,0.189 -0.161,0.375 -0.259,0.515l-0.539,0.783h1.342l-1.126,0.108l-1.678,-0.808l0.914,0.881l-0.079,0.007l0.157,0.068l1.251,1.206c0.296,0.286 0.631,0.688 0.985,1.115c0.533,0.642 1.084,1.305 1.665,1.779c0.108,0.137 0.261,0.218 0.436,0.229c-0.001,5.765 -0.036,10.902 -1.12,15.379zM6.568,29.584c-0.681,-2.58 -1.02,-5.43 -1.063,-8.818c0.074,0.012 0.148,0.018 0.224,0.018c0.604,0 1.073,-0.388 1.488,-0.73c0.484,-0.305 0.989,-0.622 1.504,-0.956c-0.201,0.17 -0.403,0.347 -0.607,0.534c-0.012,0.002 -1.58,1.091 -1.867,2.056c-0.148,0.267 -0.102,0.754 -0.056,1.224c0.018,0.176 0.035,0.35 0.035,0.499c0,2.332 0.109,4.359 0.342,6.173zM33.504,28.625c0.183,-1.545 0.271,-3.215 0.271,-5.049c0,-0.149 0.018,-0.322 0.035,-0.498c0.046,-0.47 0.093,-0.957 -0.092,-1.313c-0.154,-0.551 -0.877,-1.184 -1.731,-1.886l-0.119,-0.099c-0.623,-0.515 -1.214,-0.989 -1.803,-1.451c0.864,0.619 1.781,1.22 2.771,1.843l0.15,0.106c0.358,0.255 0.765,0.544 1.275,0.544c0.078,0 0.156,-0.007 0.232,-0.02c-0.049,2.878 -0.362,5.414 -0.989,7.823zM26.597,15.699c-0.127,-0.092 -0.235,-0.192 -0.343,-0.29c-0.203,-0.186 -0.414,-0.377 -0.688,-0.509c-0.092,-0.044 -0.214,-0.085 -0.38,-0.13c0.113,-0.001 0.239,-0.022 0.364,-0.046c0.044,-0.009 0.087,-0.019 0.129,-0.024l0.073,0.07h0.119c0.157,0.101 0.506,0.437 0.68,0.604c0.57,0.574 1.155,1.105 1.764,1.61c-0.545,-0.41 -1.111,-0.833 -1.718,-1.285zM12.304,16.49c0.387,-0.327 0.769,-0.668 1.141,-1.028c0.097,-0.063 0.264,-0.214 0.42,-0.358c0.087,-0.08 0.21,-0.193 0.285,-0.25h0.099l0.068,-0.065c0.021,0.004 0.203,0.04 0.276,0.049c-0.062,0.021 -0.113,0.042 -0.159,0.064c-0.418,0.201 -0.725,0.497 -1.079,0.839c-0.347,0.255 -0.7,0.504 -1.051,0.749zM7.931,14.482c-0.181,-0.17 -0.382,-0.337 -0.59,-0.511c-0.199,-0.165 -0.402,-0.334 -0.586,-0.506c0.325,-0.577 0.522,-1.373 0.673,-2.043c-0.025,0.625 -0.028,1.273 -0.006,1.949l0.022,0.662l0.631,-0.203c0.472,-0.152 1.643,-0.332 4.53,-0.349c-2.079,0.132 -3.577,0.455 -4.674,1.001zM32.097,14.412c-0.878,-0.447 -1.984,-0.743 -3.442,-0.911c1.98,0.054 2.872,0.202 3.271,0.33l0.631,0.203l0.022,-0.662c0.023,-0.713 0.02,-1.396 -0.01,-2.052c0.154,0.691 0.358,1.521 0.701,2.105c-0.224,0.248 -0.51,0.469 -0.789,0.684c-0.132,0.101 -0.261,0.202 -0.384,0.303z" fill="#8c0000"></path><path d="M28.762,9.66c0.061,0.193 0.119,0.409 0.163,0.594c-0.01,0.006 -0.02,0.012 -0.029,0.018c-0.042,0.025 -0.086,0.052 -0.131,0.08v-0.323c0,-0.124 -0.001,-0.247 -0.003,-0.369M11.238,9.66c-0.002,0.122 -0.002,0.245 -0.002,0.369v0.383c-0.011,-0.006 -0.021,-0.013 -0.032,-0.019c-0.042,-0.025 -0.093,-0.055 -0.142,-0.085c0.046,-0.195 0.109,-0.436 0.176,-0.648M20,13.803l0.725,0.311v1.321c0,0.533 0.284,1.056 0.523,1.4c0.072,0.105 0.167,0.222 0.264,0.338c0.04,0.048 0.082,0.096 0.117,0.141c0.018,0.149 0.029,0.654 -0.344,1.912l-0.013,0.044l-0.009,0.045c-0.326,1.636 -0.72,3.177 -1.125,4.428l-0.138,-0.134l-0.124,0.119c-0.379,-1.23 -0.717,-2.647 -1.028,-3.953l-0.123,-0.517l-0.031,-0.119c-0.098,-0.374 -0.395,-1.513 -0.323,-1.84l0.007,-0.025c0.052,-0.082 0.153,-0.218 0.212,-0.298c0.06,-0.081 0.116,-0.158 0.162,-0.224c0.208,-0.301 0.523,-0.756 0.523,-1.4v-1.238l0.725,-0.311M26.039,0.05c0.949,3.077 1.725,6.071 1.725,9.979c-1.725,0 -2.416,0 -4.314,0c-0.604,0.499 -1.208,1.331 -1.725,1.663c0.173,-0.748 -0.431,-1.247 -0.863,-1.58c0.173,0.333 0.604,1.247 0.259,1.746c-0.345,0 -0.173,-0.499 -0.518,-0.499c-0.173,0.166 -0.431,0.249 -0.604,0.249c-0.259,0 -0.431,0 -0.604,-0.249c-0.345,0 -0.173,0.499 -0.518,0.499c-0.345,-0.499 0.086,-1.414 0.259,-1.746c-0.518,0.333 -1.035,0.832 -0.863,1.58c-0.518,-0.333 -1.035,-1.164 -1.725,-1.663c-1.898,0 -2.588,0 -4.314,0c0,-3.909 0.776,-6.902 1.725,-9.979l-0.345,0.499c-0.949,1.996 -2.071,4.823 -2.761,7.235c-0.173,0.333 -0.345,0.915 -0.518,1.414c-0.173,0.499 -0.345,1.247 -0.345,1.414c0.173,0.499 0.949,0.665 1.294,1.081c0.207,-0.299 0.911,-0.359 1.795,-0.359c0.589,0 1.259,0.027 1.915,0.027c0.345,0 0.652,-0.074 0.92,-0.074c0.134,0 0.259,0.018 0.374,0.074c0.604,0.166 0.776,1.141 1.122,1.64c-0.776,0 -1.549,0 -2.326,0c-0.189,0 -0.987,-0.019 -2,-0.019c-1.763,0 -4.178,0.058 -5.164,0.375c-0.171,-5.24 1.182,-8.781 3.08,-12.357c-1.898,2.495 -2.647,4.954 -3.596,8.364c-0.173,0.333 -0.173,0.748 -0.345,1.414c-0.173,0.748 -0.431,2.162 -0.949,2.744c0.518,0.582 1.294,1.081 1.725,1.58c1.553,-0.915 4.059,-1.187 7.165,-1.187c0.298,0 0.558,-0.02 0.859,-0.02c0.309,0 0.66,0.021 1.141,0.105c-0.776,0.333 -1.227,0.354 -2.176,0.354c-0.23,0 -0.422,-0.074 -0.575,-0.074c-0.077,0 -0.144,0.018 -0.201,0.074c-0.173,0 -0.604,0.499 -0.949,0.748c-1.898,1.83 -3.957,3.152 -6.2,4.565c-0.394,0.326 -0.752,0.616 -1.169,0.616c-0.223,0.001 -0.461,-0.081 -0.73,-0.283c0,6.154 0.929,10.595 3,14.753c0.259,0.332 0.776,1.247 0.776,1.247c-1.553,-3.576 -2.051,-7.601 -2.051,-12.59c0,-0.499 -0.173,-1.247 0,-1.58c0.173,-0.582 1.122,-1.414 1.725,-1.83c1.725,-1.58 3.353,-2.486 5.251,-3.9c0.345,-0.333 0.604,-0.582 0.949,-0.748c0.345,-0.166 1.898,-0.416 2.588,-0.748c-0.776,0.748 -1.725,2.162 -2.675,2.911c-0.058,0.055 -0.111,0.074 -0.166,0.074c-0.11,0 -0.227,-0.074 -0.399,-0.074c0,7.484 -0.003,13.805 2.068,19.044c0.518,1.247 1.122,2.495 1.898,3.41c-2.845,-4.992 -1.964,-13.235 -1.964,-20.969c-0.604,-0.499 -0.486,-0.572 0.031,-1.154c0.604,-0.582 1.38,-2.162 2.243,-2.495c0,0.333 -0.173,0.582 -0.345,0.832c-0.173,0.249 -0.518,0.665 -0.518,0.832c-0.173,0.582 0.173,1.83 0.345,2.495c0.518,2.162 1.122,4.827 1.898,6.491c0.346,-0.001 0.173,-0.837 0.346,-1.003c0.173,0.166 0,1.002 0.345,1.002c0.776,-1.663 1.467,-4.328 1.898,-6.491c0.173,-0.582 0.518,-1.83 0.345,-2.495c0,-0.166 -0.345,-0.499 -0.518,-0.748c-0.173,-0.249 -0.345,-0.582 -0.345,-0.832c0.776,0.333 1.553,1.83 2.243,2.495c0.518,0.583 0.636,0.655 0.032,1.071c0,7.734 0.864,16.06 -1.983,21.05c0.776,-0.915 1.467,-2.162 1.898,-3.41c2.071,-5.322 2.085,-11.642 2.085,-19.126c-0.23,0 -0.366,0.074 -0.457,0.074c-0.045,0 -0.079,-0.018 -0.108,-0.074c-0.949,-0.748 -1.898,-2.162 -2.675,-2.911c0.69,0.333 2.243,0.582 2.588,0.748c0.345,0.166 0.604,0.499 0.949,0.748c1.898,1.414 3.439,2.57 5.251,4.066c0.604,0.499 1.553,1.247 1.725,1.83c0.173,0.333 0,1.081 0,1.58c0,4.99 -0.635,8.848 -2.275,12.424c0,0 0.518,-0.915 0.776,-1.414c2.073,-4.157 3.226,-8.431 3.226,-14.585c-0.273,0.234 -0.515,0.324 -0.739,0.324c-0.413,0 -0.768,-0.304 -1.159,-0.574c-2.243,-1.414 -4.302,-2.819 -6.2,-4.732c-0.345,-0.333 -0.776,-0.748 -0.949,-0.748c-0.058,-0.055 -0.134,-0.074 -0.22,-0.074c-0.173,0 -0.383,0.074 -0.556,0.074c-0.259,0 -0.48,0.005 -0.681,0.005c-0.538,0 -0.93,-0.033 -1.495,-0.275c0.863,-0.083 1.396,-0.168 2.086,-0.168c3.106,0 5.525,0.272 7.078,1.187c0.518,-0.499 1.294,-0.915 1.725,-1.58c-0.518,-0.582 -0.776,-1.996 -0.949,-2.744c-0.173,-0.582 -0.173,-1.081 -0.345,-1.414c-0.949,-3.327 -1.698,-5.786 -3.596,-8.281c1.898,3.576 3.251,7.117 3.078,12.356c-0.986,-0.317 -3.366,-0.375 -5.104,-0.375c-0.998,0 -1.785,0.019 -1.974,0.019c-0.776,0 -1.635,0 -2.412,0c0.345,-0.499 0.518,-1.474 1.122,-1.64c0.115,-0.055 0.24,-0.074 0.374,-0.074c0.268,0 0.575,0.074 0.92,0.074c0.621,0 1.27,-0.027 1.852,-0.027c0.874,0 1.598,0.06 1.857,0.359c0.345,-0.499 1.122,-0.665 1.294,-1.081c0,-0.166 -0.173,-0.915 -0.345,-1.414c-0.173,-0.499 -0.345,-1.081 -0.518,-1.414c-0.604,-2.495 -1.812,-5.239 -2.761,-7.235l-0.344,-0.498z" fill="#bf0202"></path></g></g></svg>